<svg width="60" height="60" viewBox="0 0 60 60" fill="none" xmlns="http://www.w3.org/2000/svg">
<circle cx="30" cy="30" r="30" fill="#1A73E8"/>
<path fill-rule="evenodd" clip-rule="evenodd" d="M29.0148 17C35.6396 17 41.0283 22.3887 41.0283 29.0135C41.0283 32.1391 39.8288 34.9898 37.866 37.1293L41.7283 40.9835C42.0898 41.345 42.091 41.9297 41.7295 42.2912C41.5494 42.4738 41.3113 42.5639 41.0744 42.5639C40.8388 42.5639 40.6019 42.4738 40.4206 42.2937L36.5116 38.3956C34.4554 40.0424 31.8481 41.0283 29.0148 41.0283C22.3899 41.0283 17 35.6384 17 29.0135C17 22.3887 22.3899 17 29.0148 17ZM29.0148 18.8505C23.4102 18.8505 18.8505 23.4089 18.8505 29.0135C18.8505 34.6181 23.4102 39.1778 29.0148 39.1778C34.6181 39.1778 39.1778 34.6181 39.1778 29.0135C39.1778 23.4089 34.6181 18.8505 29.0148 18.8505Z" fill="white"/>
</svg>
