<svg width="16" height="18" viewBox="0 0 16 18" fill="none" xmlns="http://www.w3.org/2000/svg">
<path d="M10.8998 1.92823e-06C11.2656 -0.000850706 11.5549 0.281158 11.5557 0.65717L11.5566 1.2981C13.9302 1.48269 15.4981 3.08757 15.5006 5.54874L15.51 12.7528C15.5134 15.4361 13.8145 17.0872 11.0912 17.0914L4.43921 17.1C1.73298 17.1034 0.0127727 15.4131 0.00936966 12.722L5.71061e-06 5.60258C-0.00339155 3.12517 1.50924 1.52456 3.88282 1.30835L3.88197 0.667424C3.88112 0.291413 4.16187 0.00854958 4.5362 0.00854958C4.91053 0.00769501 5.19127 0.289704 5.19212 0.665715L5.19297 1.26392L10.2464 1.25708L10.2456 0.658879C10.2447 0.282867 10.5255 0.000858437 10.8998 1.92823e-06ZM11.2469 12.1341H11.2384C10.847 12.1435 10.5331 12.4691 10.5416 12.8622C10.5425 13.2553 10.8581 13.5791 11.2494 13.5877C11.6484 13.5868 11.9717 13.2612 11.9709 12.8596C11.9709 12.458 11.6467 12.1341 11.2469 12.1341ZM4.23673 12.1349C3.84539 12.152 3.53912 12.4776 3.53997 12.8707C3.55784 13.2638 3.88112 13.5715 4.27247 13.5535C4.65615 13.5364 4.96157 13.2108 4.94371 12.8177C4.9352 12.4332 4.61957 12.1341 4.23673 12.1349ZM7.74181 12.1306C7.35047 12.1486 7.04505 12.4733 7.04505 12.8664C7.06292 13.2595 7.3862 13.5663 7.77755 13.5492C8.16038 13.5313 8.46665 13.2066 8.44878 12.8126C8.44028 12.4289 8.12465 12.1298 7.74181 12.1306ZM4.23248 9.05846C3.84114 9.07556 3.53572 9.40115 3.53657 9.79425C3.55358 10.1874 3.87772 10.495 4.26906 10.4771C4.6519 10.46 4.95732 10.1344 4.93945 9.74127C4.93094 9.35671 4.61617 9.05761 4.23248 9.05846ZM7.73841 9.02855C7.34707 9.04564 7.0408 9.37124 7.04165 9.76434C7.05866 10.1574 7.3828 10.4642 7.77414 10.4471C8.15698 10.4292 8.4624 10.1045 8.44538 9.71136C8.43602 9.3268 8.12125 9.0277 7.73841 9.02855ZM11.2435 9.03283C10.8521 9.04137 10.5459 9.35756 10.5467 9.75067V9.76007C10.5552 10.1532 10.8785 10.4514 11.2707 10.4429C11.6536 10.4335 11.959 10.1079 11.9505 9.71478C11.9326 9.33876 11.6255 9.03197 11.2435 9.03283ZM10.2481 2.57312L5.19468 2.57996L5.19553 3.2713C5.19553 3.63962 4.91563 3.93018 4.5413 3.93018C4.16697 3.93103 3.88538 3.64133 3.88538 3.27301L3.88452 2.61499C2.22557 2.77993 1.30761 3.7473 1.31016 5.60087L1.31101 5.86664L14.1913 5.84955V5.55045C14.1547 3.71312 13.2257 2.74916 11.5583 2.60559L11.5591 3.26361C11.5591 3.63108 11.2707 3.92249 10.9049 3.92249C10.5306 3.92334 10.249 3.63279 10.249 3.26532L10.2481 2.57312Z" fill="#1A73E8"/>
</svg>
