<svg width="11" height="15" viewBox="0 0 11 15" fill="none" xmlns="http://www.w3.org/2000/svg">
<path d="M4.82109 14.6629C3.32578 12.7772 0 8.20679 0 5.63959C0 2.52489 2.4624 0 5.5 0C8.53646 0 11 2.52489 11 5.63959C11 8.20679 7.64844 12.7772 6.17891 14.6629C5.82656 15.1124 5.17344 15.1124 4.82109 14.6629ZM5.5 7.51946C6.5112 7.51946 7.33333 6.67646 7.33333 5.63959C7.33333 4.60273 6.5112 3.75973 5.5 3.75973C4.4888 3.75973 3.66667 4.60273 3.66667 5.63959C3.66667 6.67646 4.4888 7.51946 5.5 7.51946Z" fill="#1A73E8"/>
</svg>
