<svg width="15" height="15" viewBox="0 0 15 15" fill="none" xmlns="http://www.w3.org/2000/svg">
<path d="M7.5 10.5C9.15685 10.5 10.5 9.15685 10.5 7.5C10.5 5.84315 9.15685 4.5 7.5 4.5C5.84315 4.5 4.5 5.84315 4.5 7.5C4.5 9.15685 5.84315 10.5 7.5 10.5Z" fill="#1A73E8"/>
<path d="M8.25 1.55175V0H6.75V1.55175C5.43022 1.72026 4.20373 2.32213 3.26293 3.26293C2.32213 4.20373 1.72026 5.43022 1.55175 6.75H0V8.25H1.55175C1.72001 9.56987 2.3218 10.7965 3.26265 11.7374C4.20349 12.6782 5.43013 13.28 6.75 13.4482V15H8.25V13.4482C9.56992 13.2801 10.7966 12.6784 11.7375 11.7375C12.6784 10.7966 13.2801 9.56992 13.4482 8.25H15V6.75H13.4482C13.28 5.43013 12.6782 4.20349 11.7374 3.26265C10.7965 2.3218 9.56987 1.72001 8.25 1.55175ZM7.5 12C5.01825 12 3 9.98175 3 7.5C3 5.01825 5.01825 3 7.5 3C9.98175 3 12 5.01825 12 7.5C12 9.98175 9.98175 12 7.5 12Z" fill="#1A73E8"/>
</svg>
