<svg width="13" height="16" viewBox="0 0 13 16" fill="none" xmlns="http://www.w3.org/2000/svg">
<path d="M4.0625 13.9492H8.9375V15.5898H4.0625C1.82 15.5898 0 13.7524 0 11.4883V4.10561H1.625V11.4883C1.625 12.85 2.71375 13.9492 4.0625 13.9492ZM5.21625 2.80133C5.85 2.1615 5.85 1.11971 5.21625 0.479877C4.5825 -0.159959 3.55063 -0.159959 2.91688 0.479877C2.28313 1.11971 2.28313 2.1615 2.91688 2.80133C3.55063 3.44937 4.57438 3.44937 5.21625 2.80133ZM6.09375 5.74622C6.09375 4.84389 5.3625 4.10561 4.46875 4.10561H4.0625C3.16875 4.10561 2.4375 4.84389 2.4375 5.74622V10.668C2.4375 12.0297 3.52625 13.1289 4.875 13.1289H8.99438L11.8381 16L13 14.827L8.88062 10.668H6.09375V5.74622Z" fill="#1A73E8"/>
</svg>
