<svg width="21" height="22" viewBox="0 0 21 22" fill="none" xmlns="http://www.w3.org/2000/svg">
<path fill-rule="evenodd" clip-rule="evenodd" d="M9.71781 0.887207C15.0761 0.887207 19.4346 5.2457 19.4346 10.604C19.4346 13.1321 18.4645 15.4378 16.8769 17.1682L20.0008 20.2856C20.2932 20.578 20.2942 21.0509 20.0018 21.3433C19.8561 21.491 19.6635 21.5638 19.4719 21.5638C19.2814 21.5638 19.0898 21.491 18.9431 21.3453L15.7815 18.1925C14.1183 19.5244 12.0095 20.3218 9.71781 20.3218C4.3595 20.3218 0 15.9623 0 10.604C0 5.2457 4.3595 0.887207 9.71781 0.887207ZM9.71781 2.38394C5.1847 2.38394 1.49674 6.07091 1.49674 10.604C1.49674 15.1371 5.1847 18.8251 9.71781 18.8251C14.2499 18.8251 17.9379 15.1371 17.9379 10.604C17.9379 6.07091 14.2499 2.38394 9.71781 2.38394Z" fill="#1A73E8"/>
</svg>
