<svg width="51" height="59" viewBox="0 0 51 59" fill="none" xmlns="http://www.w3.org/2000/svg">
<g clip-path="url(#clip0)">
<path d="M7.44531 58.8883H39.2543C41.4633 58.8883 43.2543 56.9283 43.2543 54.5109V32.623H3.44531V54.5109C3.44531 56.9283 5.23631 58.8883 7.44531 58.8883Z" fill="#FFFEFE"/>
<path d="M0.960938 24.5065V30.382H45.7439V24.5065C45.7439 22.0891 43.9529 20.1291 41.7439 20.1291H30.0349C35.5959 20.1291 43.5919 14.223 41.8399 7.96008C40.3769 2.72804 35.9859 0.0819263 31.4989 0.112568C25.1639 0.151964 23.5219 14.6859 23.5219 14.6859H23.3519C23.3519 14.6859 21.7109 0.151964 15.3749 0.112568C10.8869 0.0819263 6.49694 2.72804 5.03394 7.96008C3.28094 14.223 11.2779 20.1291 16.8409 20.1291H4.96094C2.75194 20.1291 0.960938 22.0891 0.960938 24.5065ZM36.1579 5.39495C36.1579 5.39495 35.9619 12.5475 27.1789 17.889C27.1799 17.889 28.8389 8.70642 36.1579 5.39495ZM10.7899 5.39495C18.1069 8.70532 19.7659 17.889 19.7659 17.889C10.9849 12.5475 10.7899 5.39495 10.7899 5.39495Z" fill="#FFFEFE"/>
</g>
<defs>
<clipPath id="clip0">
<rect width="50" height="58" fill="white" transform="translate(0.5 0.5)"/>
</clipPath>
</defs>
</svg>
