<svg width="59" height="59" viewBox="0 0 59 59" fill="none" xmlns="http://www.w3.org/2000/svg">
<g clip-path="url(#clip0)">
<path d="M26.1016 44.6797H32.8984V58.5H26.1016V44.6797Z" fill="#FFFEFE"/>
<path d="M14.2109 58.5H22.7044V41.2812H36.2982V58.5H44.832V0.5H14.2109V58.5ZM37.9974 7.29688H41.3958V10.6953H37.9974V7.29688ZM37.9974 14.0938H41.3958V17.4922H37.9974V14.0938ZM37.9974 20.8906H41.3958V24.2891H37.9974V20.8906ZM37.9974 27.6875H41.3958V31.0859H37.9974V27.6875ZM37.9974 34.4844H41.3958V37.8828H37.9974V34.4844ZM31.2005 7.29688H34.599V10.6953H31.2005V7.29688ZM31.2005 14.0938H34.599V17.4922H31.2005V14.0938ZM31.2005 20.8906H34.599V24.2891H31.2005V20.8906ZM31.2005 27.6875H34.599V31.0859H31.2005V27.6875ZM31.2005 34.4844H34.599V37.8828H31.2005V34.4844ZM24.4036 7.29688H27.8021V10.6953H24.4036V7.29688ZM24.4036 14.0938H27.8021V17.4922H24.4036V14.0938ZM24.4036 20.8906H27.8021V24.2891H24.4036V20.8906ZM24.4036 27.6875H27.8021V31.0859H24.4036V27.6875ZM24.4036 34.4844H27.8021V37.8828H24.4036V34.4844ZM17.6068 7.29688H21.0052V10.6953H17.6068V7.29688ZM17.6068 14.0938H21.0052V17.4922H17.6068V14.0938ZM17.6068 20.8906H21.0052V24.2891H17.6068V20.8906ZM17.6068 27.6875H21.0052V31.0859H17.6068V27.6875ZM17.6068 34.4844H21.0052V37.8828H17.6068V34.4844Z" fill="#FFFEFE"/>
<path d="M48.1523 14.0938H58.5021V58.5H48.1523V14.0938Z" fill="#FFFEFE"/>
<path d="M0.5 14.0938H10.8081V58.5H0.5V14.0938Z" fill="#FFFEFE"/>
</g>
<defs>
<clipPath id="clip0">
<rect width="58" height="58" fill="white" transform="translate(0.5 0.5)"/>
</clipPath>
</defs>
</svg>
