<svg width="42" height="43" viewBox="0 0 42 43" fill="none" xmlns="http://www.w3.org/2000/svg">
<path d="M21 17.9062C19 17.9062 17.4062 19.5312 17.4062 21.5C17.4062 23.5 19 25.0938 21 25.0938C22.9688 25.0938 24.5938 23.5 24.5938 21.5C24.5938 19.5312 22.9688 17.9062 21 17.9062ZM21 23.8438C19.7188 23.8438 18.6562 22.8125 18.6562 21.5C18.6562 20.2188 19.6875 19.1875 21 19.1875C22.2812 19.1875 23.3125 20.2188 23.3125 21.5C23.3125 22.8125 22.2812 23.8438 21 23.8438ZM25.5625 17.7812C25.5625 17.3125 25.1875 16.9375 24.7188 16.9375C24.25 16.9375 23.875 17.3125 23.875 17.7812C23.875 18.25 24.25 18.625 24.7188 18.625C25.1875 18.625 25.5625 18.25 25.5625 17.7812ZM27.9375 18.625C27.875 17.5 27.625 16.5 26.8125 15.6875C26 14.875 25 14.625 23.875 14.5625C22.7188 14.5 19.25 14.5 18.0938 14.5625C16.9688 14.625 16 14.875 15.1562 15.6875C14.3438 16.5 14.0938 17.5 14.0312 18.625C13.9688 19.7812 13.9688 23.25 14.0312 24.4062C14.0938 25.5312 14.3438 26.5 15.1562 27.3438C16 28.1562 16.9688 28.4062 18.0938 28.4688C19.25 28.5312 22.7188 28.5312 23.875 28.4688C25 28.4062 26 28.1562 26.8125 27.3438C27.625 26.5 27.875 25.5312 27.9375 24.4062C28 23.25 28 19.7812 27.9375 18.625ZM26.4375 25.625C26.2188 26.25 25.7188 26.7188 25.125 26.9688C24.1875 27.3438 22 27.25 21 27.25C19.9688 27.25 17.7812 27.3438 16.875 26.9688C16.25 26.7188 15.7812 26.25 15.5312 25.625C15.1562 24.7188 15.25 22.5312 15.25 21.5C15.25 20.5 15.1562 18.3125 15.5312 17.375C15.7812 16.7812 16.25 16.3125 16.875 16.0625C17.7812 15.6875 19.9688 15.7812 21 15.7812C22 15.7812 24.1875 15.6875 25.125 16.0625C25.7188 16.2812 26.1875 16.7812 26.4375 17.375C26.8125 18.3125 26.7188 20.5 26.7188 21.5C26.7188 22.5312 26.8125 24.7188 26.4375 25.625Z" fill="#FFFEFE"/>
<rect x="0.5" y="1" width="41" height="41" rx="20.5" stroke="#FFFEFE"/>
</svg>
