<svg width="42" height="43" viewBox="0 0 42 43" fill="none" xmlns="http://www.w3.org/2000/svg">
<path d="M27.3438 18.25C27.9688 17.7812 28.5312 17.2188 28.9688 16.5625C28.4062 16.8125 27.75 17 27.0938 17.0625C27.7812 16.6562 28.2812 16.0312 28.5312 15.25C27.9062 15.625 27.1875 15.9062 26.4688 16.0625C25.8438 15.4062 25 15.0312 24.0625 15.0312C22.25 15.0312 20.7812 16.5 20.7812 18.3125C20.7812 18.5625 20.8125 18.8125 20.875 19.0625C18.1562 18.9062 15.7188 17.5938 14.0938 15.625C13.8125 16.0938 13.6562 16.6562 13.6562 17.2812C13.6562 18.4062 14.2188 19.4062 15.125 20C14.5938 19.9688 14.0625 19.8438 13.625 19.5938V19.625C13.625 21.2188 14.75 22.5312 16.25 22.8438C16 22.9062 15.6875 22.9688 15.4062 22.9688C15.1875 22.9688 15 22.9375 14.7812 22.9062C15.1875 24.2188 16.4062 25.1562 17.8438 25.1875C16.7188 26.0625 15.3125 26.5938 13.7812 26.5938C13.5 26.5938 13.25 26.5625 13 26.5312C14.4375 27.4688 16.1562 28 18.0312 28C24.0625 28 27.3438 23.0312 27.3438 18.6875C27.3438 18.5312 27.3438 18.4062 27.3438 18.25Z" fill="#FFFEFE"/>
<rect x="0.5" y="1" width="41" height="41" rx="20.5" stroke="#FFFEFE"/>
</svg>
